<?xml version="1.0" encoding="utf-8"?>
<svg viewBox="0 0 500 500" xmlns="http://www.w3.org/2000/svg">
  <path id="Transparent_Ring" class="transrg" style="opacity:0.4;fill:none;stroke:#FFFFFF;stroke-width:2;stroke-miterlimit:10;enable-background:new" d="M84.2,85c31.3-31.5,74.7-51,122.7-51c95.5,0,173,77.5,173,173s-77.5,173-173,173 c-47.8,0-91-19.4-122.3-50.7" transform="matrix(1, 0, 0, 1, 300.428589, 98.016602)"/>
  <path id="Opaque_Ring" class="transrgwht" stroke-dasharray="0,1000" style="fill: none; stroke: rgb(255, 255, 255); stroke-width: 2; stroke-miterlimit: 10; stroke-dasharray: 10, 1000;" d="M84.2,85c31.3-31.5,74.7-51,122.7-51c95.5,0,173,77.5,173,173s-77.5,173-173,173 c-47.8,0-91-19.4-122.3-50.7" transform="matrix(1, 0, 0, 1, 300.428589, 98.016602)"/>
  <g id="Dots" class="dots-nav" transform="matrix(1, 0, 0, 1, 179.061081, 151.008057)">
    <g>
      <path class="dotsst dotsfill" style="fill: rgb(0, 146, 255); opacity: 1;" d="M206.8,29c-3.3,0-6,2.7-6,6s2.7,6,6,6s6-2.7,6-6S210.1,29,206.8,29z M206.8"/>
    </g>
    <g>
      <path class="dotsstro" style="opacity: 1; fill: none; stroke: rgb(255, 255, 255); stroke-width: 2; stroke-miterlimit: 10;" d="M206.8,29c-3.3,0-6,2.7-6,6s2.7,6,6,6s6-2.7,6-6S210.1,29,206.8,29z M206.8"/>
    </g>
  </g>
  <g id="Dots1" class="dots-nav" transform="matrix(1, 0, 0, 1, 297.009796, 96.30719)">
    <g>
      <path class="dotsst dotsfill1" style="fill: rgb(255, 255, 255); opacity: 0.4;" d="M206.8,29c-3.3,0-6,2.7-6,6s2.7,6,6,6s6-2.7,6-6S210.1,29,206.8,29z M206.8"/>
    </g>
    <g>
      <path class="dotsstro1" style="opacity: 0; fill: none; stroke: rgb(255, 255, 255); stroke-width: 2; stroke-miterlimit: 10;" d="M206.8,29c-3.3,0-6,2.7-6,6s2.7,6,6,6s6-2.7,6-6S210.1,29,206.8,29z M206.8"/>
    </g>
  </g>
  <g id="Dots5" class="dots-nav" transform="matrix(1, 0, 0, 1, 298.719177, 442.460999)">
    <g>
      <path class="dotsst dotsfill5" style="fill: rgb(255, 255, 255); opacity: 0.4;" d="M206.8,29c-3.3,0-6,2.7-6,6s2.7,6,6,6s6-2.7,6-6S210.1,29,206.8,29z M206.8"/>
    </g>
    <g>
      <path class="dotsstro5" style="opacity: 0; fill: none; stroke: rgb(255, 255, 255); stroke-width: 2; stroke-miterlimit: 10;" d="M206.8,29c-3.3,0-6,2.7-6,6s2.7,6,6,6s6-2.7,6-6S210.1,29,206.8,29z M206.8"/>
    </g>
  </g>
  <g id="Dots6" class="dots-nav" transform="matrix(1, 0, 0, 1, 178.206375, 392.033691)">
    <g>
      <path class="dotsst dotsfill6" style="fill: rgb(255, 255, 255); opacity: 0.4;" d="M206.8,29c-3.3,0-6,2.7-6,6s2.7,6,6,6s6-2.7,6-6S210.1,29,206.8,29z M206.8"/>
    </g>
    <g>
      <path class="dotsstro6" style="opacity: 0; fill: none; stroke: rgb(255, 255, 255); stroke-width: 2; stroke-miterlimit: 10;" d="M206.8,29c-3.3,0-6,2.7-6,6s2.7,6,6,6s6-2.7,6-6S210.1,29,206.8,29z M206.8"/>
    </g>
  </g>
</svg>